<mxfile host="app.diagrams.net" modified="2022-01-12T12:23:07.958Z" agent="5.0 (Macintosh; Intel Mac OS X 10_15_7) AppleWebKit/537.36 (KHTML, like Gecko) Chrome/97.0.4692.71 Safari/537.36" etag="aZ3mnfeDK_xMyHXxcxo1" version="16.2.4" type="github">
  <diagram id="CegL4EQW-R6RfhR35Qjw" name="Page-1">
    <mxGraphModel dx="1822" dy="648" grid="1" gridSize="10" guides="1" tooltips="1" connect="1" arrows="1" fold="1" page="1" pageScale="1" pageWidth="827" pageHeight="1169" math="0" shadow="0">
      <root>
        <mxCell id="0" />
        <mxCell id="1" parent="0" />
        <mxCell id="zXV2b-s4_KGpaRB_lRhy-20" style="edgeStyle=orthogonalEdgeStyle;rounded=0;orthogonalLoop=1;jettySize=auto;html=1;entryX=0.625;entryY=-0.06;entryDx=0;entryDy=0;entryPerimeter=0;fontFamily=Helvetica;fontSize=12;fontColor=default;" edge="1" parent="1" source="zXV2b-s4_KGpaRB_lRhy-1" target="zXV2b-s4_KGpaRB_lRhy-16">
          <mxGeometry relative="1" as="geometry" />
        </mxCell>
        <mxCell id="zXV2b-s4_KGpaRB_lRhy-21" style="edgeStyle=orthogonalEdgeStyle;rounded=0;orthogonalLoop=1;jettySize=auto;html=1;entryX=0.5;entryY=0;entryDx=0;entryDy=0;fontFamily=Helvetica;fontSize=12;fontColor=default;" edge="1" parent="1" source="zXV2b-s4_KGpaRB_lRhy-1" target="zXV2b-s4_KGpaRB_lRhy-18">
          <mxGeometry relative="1" as="geometry" />
        </mxCell>
        <mxCell id="zXV2b-s4_KGpaRB_lRhy-22" value="被捕" style="edgeLabel;html=1;align=center;verticalAlign=middle;resizable=0;points=[];fontSize=12;fontFamily=Helvetica;fontColor=default;" vertex="1" connectable="0" parent="zXV2b-s4_KGpaRB_lRhy-21">
          <mxGeometry x="-0.7882" y="1" relative="1" as="geometry">
            <mxPoint as="offset" />
          </mxGeometry>
        </mxCell>
        <mxCell id="zXV2b-s4_KGpaRB_lRhy-33" value="" style="edgeStyle=orthogonalEdgeStyle;rounded=0;orthogonalLoop=1;jettySize=auto;html=1;fontFamily=Helvetica;fontSize=9;fontColor=#5C5C5C;" edge="1" parent="1" source="zXV2b-s4_KGpaRB_lRhy-1" target="zXV2b-s4_KGpaRB_lRhy-32">
          <mxGeometry relative="1" as="geometry" />
        </mxCell>
        <mxCell id="zXV2b-s4_KGpaRB_lRhy-35" style="edgeStyle=orthogonalEdgeStyle;rounded=0;orthogonalLoop=1;jettySize=auto;html=1;entryX=0;entryY=0.5;entryDx=0;entryDy=0;fontFamily=Helvetica;fontSize=9;fontColor=#5C5C5C;startArrow=blockThin;startFill=1;endArrow=none;endFill=0;" edge="1" parent="1" source="zXV2b-s4_KGpaRB_lRhy-1" target="zXV2b-s4_KGpaRB_lRhy-34">
          <mxGeometry relative="1" as="geometry" />
        </mxCell>
        <mxCell id="zXV2b-s4_KGpaRB_lRhy-36" value="审讯" style="edgeLabel;html=1;align=center;verticalAlign=middle;resizable=0;points=[];fontSize=9;fontFamily=Helvetica;fontColor=#303030;" vertex="1" connectable="0" parent="zXV2b-s4_KGpaRB_lRhy-35">
          <mxGeometry x="0.2462" y="-2" relative="1" as="geometry">
            <mxPoint as="offset" />
          </mxGeometry>
        </mxCell>
        <mxCell id="zXV2b-s4_KGpaRB_lRhy-1" value="菲利普·马洛&lt;br&gt;私家侦探" style="rounded=1;whiteSpace=wrap;html=1;fillColor=#ffe6cc;strokeColor=#d79b00;sketch=0;" vertex="1" parent="1">
          <mxGeometry x="90" y="480" width="90" height="50" as="geometry" />
        </mxCell>
        <mxCell id="zXV2b-s4_KGpaRB_lRhy-5" value="" style="edgeStyle=orthogonalEdgeStyle;rounded=0;orthogonalLoop=1;jettySize=auto;html=1;fontFamily=Helvetica;fontSize=12;fontColor=default;" edge="1" parent="1" source="zXV2b-s4_KGpaRB_lRhy-2" target="zXV2b-s4_KGpaRB_lRhy-3">
          <mxGeometry relative="1" as="geometry" />
        </mxCell>
        <mxCell id="zXV2b-s4_KGpaRB_lRhy-6" value="妻子" style="edgeLabel;html=1;align=center;verticalAlign=middle;resizable=0;points=[];fontSize=12;fontFamily=Helvetica;fontColor=default;" vertex="1" connectable="0" parent="zXV2b-s4_KGpaRB_lRhy-5">
          <mxGeometry x="-0.2" y="1" relative="1" as="geometry">
            <mxPoint x="-2" as="offset" />
          </mxGeometry>
        </mxCell>
        <mxCell id="zXV2b-s4_KGpaRB_lRhy-11" style="edgeStyle=orthogonalEdgeStyle;rounded=0;orthogonalLoop=1;jettySize=auto;html=1;entryX=0.5;entryY=1;entryDx=0;entryDy=0;fontFamily=Helvetica;fontSize=12;fontColor=default;" edge="1" parent="1" source="zXV2b-s4_KGpaRB_lRhy-2" target="zXV2b-s4_KGpaRB_lRhy-10">
          <mxGeometry relative="1" as="geometry" />
        </mxCell>
        <mxCell id="zXV2b-s4_KGpaRB_lRhy-12" style="edgeStyle=orthogonalEdgeStyle;rounded=0;orthogonalLoop=1;jettySize=auto;html=1;entryX=0.411;entryY=1.04;entryDx=0;entryDy=0;entryPerimeter=0;fontFamily=Helvetica;fontSize=12;fontColor=default;" edge="1" parent="1" source="zXV2b-s4_KGpaRB_lRhy-2" target="zXV2b-s4_KGpaRB_lRhy-9">
          <mxGeometry relative="1" as="geometry" />
        </mxCell>
        <mxCell id="zXV2b-s4_KGpaRB_lRhy-13" value="战友" style="edgeLabel;html=1;align=center;verticalAlign=middle;resizable=0;points=[];fontSize=12;fontFamily=Helvetica;fontColor=default;" vertex="1" connectable="0" parent="zXV2b-s4_KGpaRB_lRhy-12">
          <mxGeometry x="-0.6" y="4" relative="1" as="geometry">
            <mxPoint as="offset" />
          </mxGeometry>
        </mxCell>
        <mxCell id="zXV2b-s4_KGpaRB_lRhy-2" value="特里·莱诺克斯" style="rounded=1;whiteSpace=wrap;html=1;fillColor=#ffe6cc;strokeColor=#d79b00;sketch=0;" vertex="1" parent="1">
          <mxGeometry x="200" y="230" width="90" height="50" as="geometry" />
        </mxCell>
        <mxCell id="zXV2b-s4_KGpaRB_lRhy-7" value="" style="edgeStyle=orthogonalEdgeStyle;rounded=0;orthogonalLoop=1;jettySize=auto;html=1;fontFamily=Helvetica;fontSize=12;fontColor=default;" edge="1" parent="1" source="zXV2b-s4_KGpaRB_lRhy-3" target="zXV2b-s4_KGpaRB_lRhy-4">
          <mxGeometry relative="1" as="geometry" />
        </mxCell>
        <mxCell id="zXV2b-s4_KGpaRB_lRhy-8" value="父亲" style="edgeLabel;html=1;align=center;verticalAlign=middle;resizable=0;points=[];fontSize=12;fontFamily=Helvetica;fontColor=default;" vertex="1" connectable="0" parent="zXV2b-s4_KGpaRB_lRhy-7">
          <mxGeometry x="-0.3" y="1" relative="1" as="geometry">
            <mxPoint x="-9" y="-1" as="offset" />
          </mxGeometry>
        </mxCell>
        <mxCell id="zXV2b-s4_KGpaRB_lRhy-3" value="西尔维亚·莱诺克斯" style="rounded=1;whiteSpace=wrap;html=1;fillColor=#dae8fc;strokeColor=#6c8ebf;sketch=0;" vertex="1" parent="1">
          <mxGeometry x="40" y="235" width="110" height="40" as="geometry" />
        </mxCell>
        <mxCell id="zXV2b-s4_KGpaRB_lRhy-4" value="哈兰·波特" style="rounded=1;whiteSpace=wrap;html=1;fillColor=#dae8fc;strokeColor=#6c8ebf;sketch=0;" vertex="1" parent="1">
          <mxGeometry y="130" width="90" height="50" as="geometry" />
        </mxCell>
        <mxCell id="zXV2b-s4_KGpaRB_lRhy-39" value="" style="edgeStyle=orthogonalEdgeStyle;rounded=0;orthogonalLoop=1;jettySize=auto;html=1;fontFamily=Helvetica;fontSize=9;fontColor=#5C5C5C;startArrow=none;startFill=0;endArrow=classic;endFill=1;" edge="1" parent="1" source="zXV2b-s4_KGpaRB_lRhy-9" target="zXV2b-s4_KGpaRB_lRhy-38">
          <mxGeometry relative="1" as="geometry" />
        </mxCell>
        <mxCell id="zXV2b-s4_KGpaRB_lRhy-40" value="保镖" style="edgeLabel;html=1;align=center;verticalAlign=middle;resizable=0;points=[];fontSize=9;fontFamily=Helvetica;fontColor=#000000;" vertex="1" connectable="0" parent="zXV2b-s4_KGpaRB_lRhy-39">
          <mxGeometry x="-0.1481" y="3" relative="1" as="geometry">
            <mxPoint x="2" y="3" as="offset" />
          </mxGeometry>
        </mxCell>
        <mxCell id="zXV2b-s4_KGpaRB_lRhy-9" value="门南德斯" style="rounded=1;whiteSpace=wrap;html=1;fillColor=#dae8fc;strokeColor=#6c8ebf;sketch=0;" vertex="1" parent="1">
          <mxGeometry x="270" y="130" width="90" height="50" as="geometry" />
        </mxCell>
        <mxCell id="zXV2b-s4_KGpaRB_lRhy-10" value="兰迪·斯塔尔&lt;br&gt;水龟俱乐部" style="rounded=1;whiteSpace=wrap;html=1;fillColor=#dae8fc;strokeColor=#6c8ebf;sketch=0;" vertex="1" parent="1">
          <mxGeometry x="140" y="130" width="90" height="50" as="geometry" />
        </mxCell>
        <mxCell id="zXV2b-s4_KGpaRB_lRhy-14" value="&amp;nbsp; &amp;nbsp; &amp;nbsp; &amp;nbsp; 因妻子死在会客室，独自逃亡到异乡在一个小旅馆里自杀。" style="text;html=1;strokeColor=none;fillColor=none;align=left;verticalAlign=middle;whiteSpace=wrap;rounded=0;sketch=0;fontFamily=Helvetica;fontSize=9;fontColor=#5C5C5C;" vertex="1" parent="1">
          <mxGeometry x="180" y="280" width="140" height="50" as="geometry" />
        </mxCell>
        <mxCell id="zXV2b-s4_KGpaRB_lRhy-23" value="" style="edgeStyle=orthogonalEdgeStyle;rounded=0;orthogonalLoop=1;jettySize=auto;html=1;fontFamily=Helvetica;fontSize=12;fontColor=default;" edge="1" parent="1" source="zXV2b-s4_KGpaRB_lRhy-16" target="zXV2b-s4_KGpaRB_lRhy-18">
          <mxGeometry relative="1" as="geometry" />
        </mxCell>
        <mxCell id="zXV2b-s4_KGpaRB_lRhy-25" value="上级" style="edgeLabel;html=1;align=center;verticalAlign=middle;resizable=0;points=[];fontSize=12;fontFamily=Helvetica;fontColor=default;" vertex="1" connectable="0" parent="zXV2b-s4_KGpaRB_lRhy-23">
          <mxGeometry x="-0.3" y="-2" relative="1" as="geometry">
            <mxPoint x="9" y="-2" as="offset" />
          </mxGeometry>
        </mxCell>
        <mxCell id="zXV2b-s4_KGpaRB_lRhy-16" value="戴顿&lt;br&gt;警探" style="rounded=1;whiteSpace=wrap;html=1;fillColor=#dae8fc;strokeColor=#6c8ebf;sketch=0;" vertex="1" parent="1">
          <mxGeometry x="20" y="580" width="80" height="50" as="geometry" />
        </mxCell>
        <mxCell id="zXV2b-s4_KGpaRB_lRhy-24" value="" style="edgeStyle=orthogonalEdgeStyle;rounded=0;orthogonalLoop=1;jettySize=auto;html=1;fontFamily=Helvetica;fontSize=12;fontColor=default;" edge="1" parent="1" source="zXV2b-s4_KGpaRB_lRhy-18" target="zXV2b-s4_KGpaRB_lRhy-19">
          <mxGeometry relative="1" as="geometry" />
        </mxCell>
        <mxCell id="zXV2b-s4_KGpaRB_lRhy-26" value="上级" style="edgeLabel;html=1;align=center;verticalAlign=middle;resizable=0;points=[];fontSize=12;fontFamily=Helvetica;fontColor=default;" vertex="1" connectable="0" parent="zXV2b-s4_KGpaRB_lRhy-24">
          <mxGeometry x="0.28" y="-2" relative="1" as="geometry">
            <mxPoint x="-12" y="-2" as="offset" />
          </mxGeometry>
        </mxCell>
        <mxCell id="zXV2b-s4_KGpaRB_lRhy-18" value="格林&lt;br&gt;警司" style="rounded=1;whiteSpace=wrap;html=1;fillColor=#dae8fc;strokeColor=#6c8ebf;sketch=0;" vertex="1" parent="1">
          <mxGeometry x="160" y="580" width="80" height="50" as="geometry" />
        </mxCell>
        <mxCell id="zXV2b-s4_KGpaRB_lRhy-30" style="edgeStyle=orthogonalEdgeStyle;rounded=0;orthogonalLoop=1;jettySize=auto;html=1;entryX=0.5;entryY=0;entryDx=0;entryDy=0;fontFamily=Helvetica;fontSize=12;fontColor=default;" edge="1" parent="1" source="zXV2b-s4_KGpaRB_lRhy-19" target="zXV2b-s4_KGpaRB_lRhy-29">
          <mxGeometry relative="1" as="geometry" />
        </mxCell>
        <mxCell id="zXV2b-s4_KGpaRB_lRhy-31" value="上上级" style="edgeLabel;html=1;align=center;verticalAlign=middle;resizable=0;points=[];fontSize=12;fontFamily=Helvetica;fontColor=default;" vertex="1" connectable="0" parent="zXV2b-s4_KGpaRB_lRhy-30">
          <mxGeometry x="-0.16" y="4" relative="1" as="geometry">
            <mxPoint as="offset" />
          </mxGeometry>
        </mxCell>
        <mxCell id="zXV2b-s4_KGpaRB_lRhy-19" value="格里高利&lt;br&gt;警监" style="rounded=1;whiteSpace=wrap;html=1;fillColor=#dae8fc;strokeColor=#6c8ebf;sketch=0;" vertex="1" parent="1">
          <mxGeometry x="290" y="580" width="80" height="50" as="geometry" />
        </mxCell>
        <mxCell id="zXV2b-s4_KGpaRB_lRhy-29" value="奥尔布莱特专员&lt;br&gt;最高长官" style="rounded=1;whiteSpace=wrap;html=1;fillColor=#dae8fc;strokeColor=#6c8ebf;sketch=0;" vertex="1" parent="1">
          <mxGeometry x="275" y="680" width="110" height="40" as="geometry" />
        </mxCell>
        <mxCell id="zXV2b-s4_KGpaRB_lRhy-32" value="休厄尔·恩迪科特&lt;br&gt;律师" style="rounded=1;whiteSpace=wrap;html=1;fillColor=#dae8fc;strokeColor=#6c8ebf;sketch=0;" vertex="1" parent="1">
          <mxGeometry x="-50" y="480" width="100" height="50" as="geometry" />
        </mxCell>
        <mxCell id="zXV2b-s4_KGpaRB_lRhy-34" value="斯普林格&lt;br&gt;地区检察官" style="rounded=1;whiteSpace=wrap;html=1;fillColor=#dae8fc;strokeColor=#6c8ebf;sketch=0;" vertex="1" parent="1">
          <mxGeometry x="250" y="480" width="100" height="50" as="geometry" />
        </mxCell>
        <mxCell id="zXV2b-s4_KGpaRB_lRhy-37" value="&amp;nbsp; &amp;nbsp; &amp;nbsp; &amp;nbsp; 在莱诺克斯房间记事本上找到了马洛通信录，马洛拒绝回答而被捕。" style="text;html=1;strokeColor=none;fillColor=none;align=left;verticalAlign=middle;whiteSpace=wrap;rounded=0;sketch=0;fontFamily=Helvetica;fontSize=9;fontColor=#5C5C5C;" vertex="1" parent="1">
          <mxGeometry x="70" y="424" width="150" height="60" as="geometry" />
        </mxCell>
        <mxCell id="zXV2b-s4_KGpaRB_lRhy-38" value="奇科·阿古斯帝诺" style="rounded=1;whiteSpace=wrap;html=1;fillColor=#dae8fc;strokeColor=#6c8ebf;sketch=0;" vertex="1" parent="1">
          <mxGeometry x="414" y="130" width="96" height="50" as="geometry" />
        </mxCell>
      </root>
    </mxGraphModel>
  </diagram>
</mxfile>
